# xmcd
#
# Track frame offsets:
#	150
#	13115
#	28270
#	44385
#	57757
#	71567
#	93242
#	110157
#	120947
#	136947
#	147897
#	160682
#	172285
#	182467
#	195020
#	207027
#	219012
#
# Disc length: 3086 seconds
#
# Revision: 2
# Processed by: cddbd v1.5.2PL0 Copyright (c) Steve Scherf et al.
# Submitted via: audiograbber 1.83.01
#
DISCID=e20c0c11
DTITLE=Solomon Burke - I Wish I Knew
DYEAR=1997
DGENRE=Blues
TTITLE0=I Wish I Knew (How It Would Feel To Be Free)
TTITLE1=Get Out Of My Life Woman
TTITLE2=Meet me In Church
TTITLE3=By The Time I Get To Phoenix
TTITLE4=Then You Can Tell Me Goodbye
TTITLE5=What'd I Say
TTITLE6=Since  Met You Baby
TTITLE7=Save It
TTITLE8=Shame On Me
TTITLE9=Why, Why, Why
TTITLE10=I Feel A Sin Coming On
TTITLE11=Lawdy Miss Clawdy
TTITLE12=Mountain Of Pride
TTITLE13=Sudenly
TTITLE14=Keep Lookin'
TTITLE15=I Stayed AwayToo Long
TTITLE16=Need Your Love So Bad
EXTD=Sequel Records. RSA CD 863.
EXTT0=
EXTT1=
EXTT2=
EXTT3=
EXTT4=
EXTT5=
EXTT6=
EXTT7=
EXTT8=
EXTT9=
EXTT10=
EXTT11=
EXTT12=
EXTT13=
EXTT14=
EXTT15=
EXTT16=
PLAYORDER=
